ffmpeg started on 2026-04-09 at 19:39:37
Report written to "D:\Convert\FFMetrics\reports\ssim_report-6.txt"
Log level: 32
Command line:
ffmpeg -hide_banner -nostdin -r 24000/1001 -i "F:\\Convert\\files\\[DC] Make Heroine ga Oosugiru - 07_Telegram_HEVC(308).mkv" -r 24000/1001 -i "F:\\Convert\\files\\[DC] Make Heroine ga Oosugiru - 07_Telegram.mp4" -lavfi "[0:v]settb=AVTB,setpts=PTS-STARTPTS,format=pix_fmts=yuv420p10le,fps=24000/1001,scale=1920:1080:flags=lanczos:param0=3:out_range=limited:out_color_matrix=bt709:out_chroma_loc=left,setsar=1/1,setdar=(1920/1080)*(1/1),colorspace=format=yuv420p10:range=tv:primaries=bt709:trc=bt709:space=bt709:fast=0[main];[1:v]settb=AVTB,setpts=PTS-STARTPTS,format=pix_fmts=yuv420p,fps=24000/1001,scale=1920:1080:flags=lanczos:param0=3:out_range=limited:out_color_matrix=bt709:out_chroma_loc=left,setsar=1/1,setdar=(1920/1080)*(1/1),colorspace=format=yuv420p:range=tv:primaries=bt709:trc=bt709:space=bt709:fast=0[ref];[main][ref]ssim=eof_action=endall:stats_file='D\\:/Convert/FFMetrics/logs/ssim_logfile-6.txt'" -f null -
Input #0, matroska,webm, from 'F:\Convert\files\[DC] Make Heroine ga Oosugiru - 07_Telegram_HEVC(308).mkv':
  Metadata:
    COMPATIBLE_BRANDS: isomiso2avc1mp41
    MAJOR_BRAND     : isom
    MINOR_VERSION   : 512
    ENCODER         : Lavf61.7.100
  Duration: 00:24:06.79, start: -0.021000, bitrate: 904 kb/s
  Stream #0:0: Video: hevc (Main 10), yuv420p10le(tv, bt709, progressive), 1920x1080 [SAR 1:1 DAR 16:9], 23.98 fps, 23.98 tbr, 1k tbn (default)
      Metadata:
        HANDLER_NAME    : VideoHandler
        VENDOR_ID       : [0][0][0][0]
        ENCODER         : Lavc61.19.100 libx265
        BPS             : 707790
        DURATION        : 00:24:06.569708333
        NUMBER_OF_FRAMES: 34683
        NUMBER_OF_BYTES : 127983486
        _STATISTICS_WRITING_APP: mkvpropedit v94.0 ('Initiate') 64-bit
        _STATISTICS_WRITING_DATE_UTC: 2026-04-09 16:04:12
        _STATISTICS_TAGS: BPS DURATION NUMBER_OF_FRAMES NUMBER_OF_BYTES
  Stream #0:1: Audio: aac (LC), 48000 Hz, stereo, fltp (default)
      Metadata:
        HANDLER_NAME    : SoundHandler
        VENDOR_ID       : [0][0][0][0]
        ENCODER         : Lavc61.19.100 aac
        BPS             : 193194
        DURATION        : 00:24:06.784000000
        NUMBER_OF_FRAMES: 67819
        NUMBER_OF_BYTES : 34938755
        _STATISTICS_WRITING_APP: mkvpropedit v94.0 ('Initiate') 64-bit
        _STATISTICS_WRITING_DATE_UTC: 2026-04-09 16:04:12
        _STATISTICS_TAGS: BPS DURATION NUMBER_OF_FRAMES NUMBER_OF_BYTES
Input #1, mov,mp4,m4a,3gp,3g2,mj2, from 'F:\Convert\files\[DC] Make Heroine ga Oosugiru - 07_Telegram.mp4':
  Metadata:
    major_brand     : isom
    minor_version   : 512
    compatible_brands: isomiso2avc1mp41
    encoder         : Lavf60.16.100
  Duration: 00:24:06.74, start: 0.000000, bitrate: 3764 kb/s
  Stream #1:0[0x1](und): Video: h264 (High) (avc1 / 0x31637661), yuv420p(tv, bt709, progressive), 1920x1080 [SAR 1:1 DAR 16:9], 3616 kb/s, 23.98 fps, 23.98 tbr, 24k tbn (default)
      Metadata:
        handler_name    : VideoHandler
        vendor_id       : [0][0][0][0]
        encoder         : Lavc60.31.102 h264_qsv
  Stream #1:1[0x2](und): Audio: aac (HE-AACv2) (mp4a / 0x6134706D), 48000 Hz, stereo, fltp, 144 kb/s (default)
      Metadata:
        handler_name    : SoundHandler
        vendor_id       : [0][0][0][0]
Stream mapping:
  Stream #0:0 (hevc) -> settb:default
  Stream #1:0 (h264) -> settb:default
  ssim:default -> Stream #0:0 (wrapped_avframe)
  Stream #0:1 -> #0:1 (aac (native) -> pcm_s16le (native))
Output #0, null, to 'pipe:':
  Metadata:
    COMPATIBLE_BRANDS: isomiso2avc1mp41
    MAJOR_BRAND     : isom
    MINOR_VERSION   : 512
    encoder         : Lavf61.7.100
  Stream #0:0: Video: wrapped_avframe, yuv420p10le(tv, bt709, progressive), 1920x1080 [SAR 1:1 DAR 16:9], q=2-31, 200 kb/s, 23.98 fps, 23.98 tbn
      Metadata:
        encoder         : Lavc61.19.100 wrapped_avframe
  Stream #0:1: Audio: pcm_s16le, 48000 Hz, stereo, s16, 1536 kb/s (default)
      Metadata:
        HANDLER_NAME    : SoundHandler
        VENDOR_ID       : [0][0][0][0]
        _STATISTICS_TAGS: BPS DURATION NUMBER_OF_FRAMES NUMBER_OF_BYTES
        BPS             : 193194
        DURATION        : 00:24:06.784000000
        NUMBER_OF_FRAMES: 67819
        NUMBER_OF_BYTES : 34938755
        _STATISTICS_WRITING_APP: mkvpropedit v94.0 ('Initiate') 64-bit
        _STATISTICS_WRITING_DATE_UTC: 2026-04-09 16:04:12
        encoder         : Lavc61.19.100 pcm_s16le
frame=  118 fps=0.0 q=-0.0 size=N/A time=00:00:04.92 bitrate=N/A speed=9.65x    frame=  281 fps=275 q=-0.0 size=N/A time=00:00:11.72 bitrate=N/A speed=11.5x    frame=  457 fps=296 q=-0.0 size=N/A time=00:00:19.06 bitrate=N/A speed=12.4x    frame=  634 fps=309 q=-0.0 size=N/A time=00:00:26.44 bitrate=N/A speed=12.9x    frame=  808 fps=313 q=-0.0 size=N/A time=00:00:33.70 bitrate=N/A speed=13.1x    frame=  837 fps=271 q=-0.0 size=N/A time=00:00:34.90 bitrate=N/A speed=11.3x    frame=  960 fps=267 q=-0.0 size=N/A time=00:00:40.04 bitrate=N/A speed=11.1x    frame= 1101 fps=268 q=-0.0 size=N/A time=00:00:45.92 bitrate=N/A speed=11.2x    frame= 1248 fps=269 q=-0.0 size=N/A time=00:00:52.05 bitrate=N/A speed=11.2x    frame= 1394 fps=271 q=-0.0 size=N/A time=00:00:58.14 bitrate=N/A speed=11.3x    frame= 1533 fps=271 q=-0.0 size=N/A time=00:01:03.93 bitrate=N/A speed=11.3x    frame= 1673 fps=270 q=-0.0 size=N/A time=00:01:09.77 bitrate=N/A speed=11.3x    frame= 1826 fps=273 q=-0.0 size=N/A time=00:01:16.15 bitrate=N/A speed=11.4x    frame= 1973 fps=274 q=-0.0 size=N/A time=00:01:22.29 bitrate=N/A speed=11.4x    frame= 2089 fps=271 q=-0.0 size=N/A time=00:01:27.12 bitrate=N/A speed=11.3x    frame= 2227 fps=270 q=-0.0 size=N/A time=00:01:32.88 bitrate=N/A speed=11.3x    frame= 2368 fps=270 q=-0.0 size=N/A time=00:01:38.76 bitrate=N/A speed=11.3x    frame= 2502 fps=269 q=-0.0 size=N/A time=00:01:44.35 bitrate=N/A speed=11.2x    frame= 2654 fps=270 q=-0.0 size=N/A time=00:01:50.69 bitrate=N/A speed=11.3x    frame= 2823 fps=273 q=-0.0 size=N/A time=00:01:57.74 bitrate=N/A speed=11.4x    frame= 2990 fps=276 q=-0.0 size=N/A time=00:02:04.70 bitrate=N/A speed=11.5x    frame= 3165 fps=279 q=-0.0 size=N/A time=00:02:12.00 bitrate=N/A speed=11.6x    frame= 3340 fps=281 q=-0.0 size=N/A time=00:02:19.30 bitrate=N/A speed=11.7x    frame= 3486 fps=282 q=-0.0 size=N/A time=00:02:25.39 bitrate=N/A speed=11.7x    frame= 3657 fps=283 q=-0.0 size=N/A time=00:02:32.52 bitrate=N/A speed=11.8x    frame= 3823 fps=285 q=-0.0 size=N/A time=00:02:39.45 bitrate=N/A speed=11.9x    frame= 3996 fps=287 q=-0.0 size=N/A time=00:02:46.66 bitrate=N/A speed=  12x    frame= 4169 fps=289 q=-0.0 size=N/A time=00:02:53.88 bitrate=N/A speed=  12x    frame= 4305 fps=288 q=-0.0 size=N/A time=00:02:59.55 bitrate=N/A speed=  12x    frame= 4466 fps=288 q=-0.0 size=N/A time=00:03:06.26 bitrate=N/A speed=  12x    frame= 4648 fps=290 q=-0.0 size=N/A time=00:03:13.86 bitrate=N/A speed=12.1x    frame= 4823 fps=292 q=-0.0 size=N/A time=00:03:21.15 bitrate=N/A speed=12.2x    frame= 5004 fps=293 q=-0.0 size=N/A time=00:03:28.70 bitrate=N/A speed=12.2x    frame= 5179 fps=295 q=-0.0 size=N/A time=00:03:36.00 bitrate=N/A speed=12.3x    frame= 5326 fps=295 q=-0.0 size=N/A time=00:03:42.13 bitrate=N/A speed=12.3x    frame= 5500 fps=296 q=-0.0 size=N/A time=00:03:49.39 bitrate=N/A speed=12.3x    frame= 5662 fps=296 q=-0.0 size=N/A time=00:03:56.15 bitrate=N/A speed=12.4x    frame= 5837 fps=297 q=-0.0 size=N/A time=00:04:03.45 bitrate=N/A speed=12.4x    frame= 6011 fps=298 q=-0.0 size=N/A time=00:04:10.70 bitrate=N/A speed=12.4x    frame= 6180 fps=299 q=-0.0 size=N/A time=00:04:17.75 bitrate=N/A speed=12.5x    frame= 6359 fps=300 q=-0.0 size=N/A time=00:04:25.22 bitrate=N/A speed=12.5x    frame= 6537 fps=301 q=-0.0 size=N/A time=00:04:32.64 bitrate=N/A speed=12.6x    frame= 6714 fps=302 q=-0.0 size=N/A time=00:04:40.02 bitrate=N/A speed=12.6x    frame= 6880 fps=303 q=-0.0 size=N/A time=00:04:46.95 bitrate=N/A speed=12.6x    frame= 7065 fps=304 q=-0.0 size=N/A time=00:04:54.66 bitrate=N/A speed=12.7x    frame= 7228 fps=304 q=-0.0 size=N/A time=00:05:01.46 bitrate=N/A speed=12.7x    frame= 7403 fps=305 q=-0.0 size=N/A time=00:05:08.76 bitrate=N/A speed=12.7x    frame= 7575 fps=305 q=-0.0 size=N/A time=00:05:15.94 bitrate=N/A speed=12.7x    frame= 7749 fps=306 q=-0.0 size=N/A time=00:05:23.19 bitrate=N/A speed=12.8x    frame= 7921 fps=307 q=-0.0 size=N/A time=00:05:30.37 bitrate=N/A speed=12.8x    frame= 8095 fps=307 q=-0.0 size=N/A time=00:05:37.62 bitrate=N/A speed=12.8x    frame= 8270 fps=308 q=-0.0 size=N/A time=00:05:44.92 bitrate=N/A speed=12.8x    frame= 8441 fps=308 q=-0.0 size=N/A time=00:05:52.06 bitrate=N/A speed=12.9x    frame= 8613 fps=309 q=-0.0 size=N/A time=00:05:59.23 bitrate=N/A speed=12.9x    frame= 8787 fps=309 q=-0.0 size=N/A time=00:06:06.49 bitrate=N/A speed=12.9x    frame= 8958 fps=310 q=-0.0 size=N/A time=00:06:13.62 bitrate=N/A speed=12.9x    frame= 9139 fps=310 q=-0.0 size=N/A time=00:06:21.17 bitrate=N/A speed=12.9x    frame= 9310 fps=311 q=-0.0 size=N/A time=00:06:28.30 bitrate=N/A speed=  13x    frame= 9482 fps=311 q=-0.0 size=N/A time=00:06:35.47 bitrate=N/A speed=  13x    frame= 9658 fps=312 q=-0.0 size=N/A time=00:06:42.81 bitrate=N/A speed=  13x    frame= 9827 fps=312 q=-0.0 size=N/A time=00:06:49.86 bitrate=N/A speed=  13x    frame=10005 fps=313 q=-0.0 size=N/A time=00:06:57.29 bitrate=N/A speed=  13x    frame=10180 fps=313 q=-0.0 size=N/A time=00:07:04.59 bitrate=N/A speed=13.1x    frame=10354 fps=313 q=-0.0 size=N/A time=00:07:11.84 bitrate=N/A speed=13.1x    frame=10516 fps=313 q=-0.0 size=N/A time=00:07:18.60 bitrate=N/A speed=13.1x    frame=10692 fps=314 q=-0.0 size=N/A time=00:07:25.94 bitrate=N/A speed=13.1x    frame=10860 fps=314 q=-0.0 size=N/A time=00:07:32.95 bitrate=N/A speed=13.1x    frame=11033 fps=314 q=-0.0 size=N/A time=00:07:40.16 bitrate=N/A speed=13.1x    frame=11207 fps=315 q=-0.0 size=N/A time=00:07:47.42 bitrate=N/A speed=13.1x    frame=11382 fps=315 q=-0.0 size=N/A time=00:07:54.72 bitrate=N/A speed=13.1x    frame=11556 fps=315 q=-0.0 size=N/A time=00:08:01.98 bitrate=N/A speed=13.2x    frame=11730 fps=316 q=-0.0 size=N/A time=00:08:09.23 bitrate=N/A speed=13.2x    frame=11904 fps=316 q=-0.0 size=N/A time=00:08:16.49 bitrate=N/A speed=13.2x    frame=12078 fps=316 q=-0.0 size=N/A time=00:08:23.75 bitrate=N/A speed=13.2x    frame=12254 fps=316 q=-0.0 size=N/A time=00:08:31.09 bitrate=N/A speed=13.2x    frame=12424 fps=317 q=-0.0 size=N/A time=00:08:38.18 bitrate=N/A speed=13.2x    frame=12602 fps=317 q=-0.0 size=N/A time=00:08:45.60 bitrate=N/A speed=13.2x    frame=12776 fps=317 q=-0.0 size=N/A time=00:08:52.86 bitrate=N/A speed=13.2x    frame=12951 fps=318 q=-0.0 size=N/A time=00:09:00.16 bitrate=N/A speed=13.2x    frame=13127 fps=318 q=-0.0 size=N/A time=00:09:07.50 bitrate=N/A speed=13.3x    frame=13293 fps=318 q=-0.0 size=N/A time=00:09:14.42 bitrate=N/A speed=13.3x    frame=13458 fps=318 q=-0.0 size=N/A time=00:09:21.31 bitrate=N/A speed=13.3x    frame=13632 fps=318 q=-0.0 size=N/A time=00:09:28.56 bitrate=N/A speed=13.3x    frame=13806 fps=318 q=-0.0 size=N/A time=00:09:35.82 bitrate=N/A speed=13.3x    frame=13976 fps=318 q=-0.0 size=N/A time=00:09:42.91 bitrate=N/A speed=13.3x    frame=14147 fps=319 q=-0.0 size=N/A time=00:09:50.04 bitrate=N/A speed=13.3x    frame=14324 fps=319 q=-0.0 size=N/A time=00:09:57.43 bitrate=N/A speed=13.3x    frame=14500 fps=319 q=-0.0 size=N/A time=00:10:04.77 bitrate=N/A speed=13.3x    frame=14674 fps=319 q=-0.0 size=N/A time=00:10:12.02 bitrate=N/A speed=13.3x    frame=14856 fps=320 q=-0.0 size=N/A time=00:10:19.61 bitrate=N/A speed=13.3x    frame=15028 fps=320 q=-0.0 size=N/A time=00:10:26.79 bitrate=N/A speed=13.3x    frame=15186 fps=320 q=-0.0 size=N/A time=00:10:33.38 bitrate=N/A speed=13.3x    frame=15356 fps=320 q=-0.0 size=N/A time=00:10:40.47 bitrate=N/A speed=13.3x    frame=15532 fps=320 q=-0.0 size=N/A time=00:10:47.81 bitrate=N/A speed=13.3x    frame=15709 fps=320 q=-0.0 size=N/A time=00:10:55.19 bitrate=N/A speed=13.4x    frame=15879 fps=320 q=-0.0 size=N/A time=00:11:02.28 bitrate=N/A speed=13.4x    frame=16061 fps=321 q=-0.0 size=N/A time=00:11:09.87 bitrate=N/A speed=13.4x    frame=16235 fps=321 q=-0.0 size=N/A time=00:11:17.13 bitrate=N/A speed=13.4x    frame=16407 fps=321 q=-0.0 size=N/A time=00:11:24.30 bitrate=N/A speed=13.4x    frame=16590 fps=321 q=-0.0 size=N/A time=00:11:31.94 bitrate=N/A speed=13.4x    frame=16770 fps=321 q=-0.0 size=N/A time=00:11:39.44 bitrate=N/A speed=13.4x    frame=16946 fps=322 q=-0.0 size=N/A time=00:11:46.78 bitrate=N/A speed=13.4x    frame=17125 fps=322 q=-0.0 size=N/A time=00:11:54.25 bitrate=N/A speed=13.4x    frame=17304 fps=322 q=-0.0 size=N/A time=00:12:01.72 bitrate=N/A speed=13.4x    frame=17472 fps=322 q=-0.0 size=N/A time=00:12:08.72 bitrate=N/A speed=13.4x    frame=17644 fps=322 q=-0.0 size=N/A time=00:12:15.90 bitrate=N/A speed=13.4x    frame=17820 fps=322 q=-0.0 size=N/A time=00:12:23.24 bitrate=N/A speed=13.4x    frame=17988 fps=322 q=-0.0 size=N/A time=00:12:30.24 bitrate=N/A speed=13.4x    frame=18166 fps=323 q=-0.0 size=N/A time=00:12:37.67 bitrate=N/A speed=13.5x    frame=18329 fps=323 q=-0.0 size=N/A time=00:12:44.47 bitrate=N/A speed=13.5x    frame=18502 fps=323 q=-0.0 size=N/A time=00:12:51.68 bitrate=N/A speed=13.5x    frame=18679 fps=323 q=-0.0 size=N/A time=00:12:59.06 bitrate=N/A speed=13.5x    frame=18850 fps=323 q=-0.0 size=N/A time=00:13:06.20 bitrate=N/A speed=13.5x    frame=19025 fps=323 q=-0.0 size=N/A time=00:13:13.50 bitrate=N/A speed=13.5x    frame=19197 fps=323 q=-0.0 size=N/A time=00:13:20.67 bitrate=N/A speed=13.5x    frame=19370 fps=323 q=-0.0 size=N/A time=00:13:27.89 bitrate=N/A speed=13.5x    frame=19550 fps=323 q=-0.0 size=N/A time=00:13:35.39 bitrate=N/A speed=13.5x    frame=19723 fps=324 q=-0.0 size=N/A time=00:13:42.61 bitrate=N/A speed=13.5x    frame=19905 fps=324 q=-0.0 size=N/A time=00:13:50.20 bitrate=N/A speed=13.5x    frame=20079 fps=324 q=-0.0 size=N/A time=00:13:57.46 bitrate=N/A speed=13.5x    frame=20257 fps=324 q=-0.0 size=N/A time=00:14:04.88 bitrate=N/A speed=13.5x    frame=20427 fps=324 q=-0.0 size=N/A time=00:14:11.97 bitrate=N/A speed=13.5x    frame=20599 fps=324 q=-0.0 size=N/A time=00:14:19.14 bitrate=N/A speed=13.5x    frame=20766 fps=324 q=-0.0 size=N/A time=00:14:26.11 bitrate=N/A speed=13.5x    frame=20940 fps=324 q=-0.0 size=N/A time=00:14:33.37 bitrate=N/A speed=13.5x    frame=21120 fps=324 q=-0.0 size=N/A time=00:14:40.88 bitrate=N/A speed=13.5x    frame=21292 fps=324 q=-0.0 size=N/A time=00:14:48.05 bitrate=N/A speed=13.5x    frame=21462 fps=325 q=-0.0 size=N/A time=00:14:55.14 bitrate=N/A speed=13.5x    frame=21647 fps=325 q=-0.0 size=N/A time=00:15:02.86 bitrate=N/A speed=13.5x    frame=21830 fps=325 q=-0.0 size=N/A time=00:15:10.49 bitrate=N/A speed=13.6x    frame=21991 fps=325 q=-0.0 size=N/A time=00:15:17.20 bitrate=N/A speed=13.5x    frame=22172 fps=325 q=-0.0 size=N/A time=00:15:24.75 bitrate=N/A speed=13.6x    frame=22355 fps=325 q=-0.0 size=N/A time=00:15:32.38 bitrate=N/A speed=13.6x    frame=22524 fps=325 q=-0.0 size=N/A time=00:15:39.43 bitrate=N/A speed=13.6x    frame=22698 fps=325 q=-0.0 size=N/A time=00:15:46.69 bitrate=N/A speed=13.6x    frame=22873 fps=325 q=-0.0 size=N/A time=00:15:53.99 bitrate=N/A speed=13.6x    frame=23045 fps=326 q=-0.0 size=N/A time=00:16:01.16 bitrate=N/A speed=13.6x    frame=23221 fps=326 q=-0.0 size=N/A time=00:16:08.50 bitrate=N/A speed=13.6x    frame=23402 fps=326 q=-0.0 size=N/A time=00:16:16.05 bitrate=N/A speed=13.6x    frame=23578 fps=326 q=-0.0 size=N/A time=00:16:23.39 bitrate=N/A speed=13.6x    frame=23754 fps=326 q=-0.0 size=N/A time=00:16:30.73 bitrate=N/A speed=13.6x    frame=23933 fps=326 q=-0.0 size=N/A time=00:16:38.20 bitrate=N/A speed=13.6x    frame=24112 fps=326 q=-0.0 size=N/A time=00:16:45.67 bitrate=N/A speed=13.6x    frame=24279 fps=326 q=-0.0 size=N/A time=00:16:52.63 bitrate=N/A speed=13.6x    frame=24462 fps=326 q=-0.0 size=N/A time=00:17:00.26 bitrate=N/A speed=13.6x    frame=24636 fps=327 q=-0.0 size=N/A time=00:17:07.52 bitrate=N/A speed=13.6x    frame=24819 fps=327 q=-0.0 size=N/A time=00:17:15.15 bitrate=N/A speed=13.6x    frame=24991 fps=327 q=-0.0 size=N/A time=00:17:22.33 bitrate=N/A speed=13.6x    frame=25168 fps=327 q=-0.0 size=N/A time=00:17:29.71 bitrate=N/A speed=13.6x    frame=25343 fps=327 q=-0.0 size=N/A time=00:17:37.01 bitrate=N/A speed=13.6x    frame=25522 fps=327 q=-0.0 size=N/A time=00:17:44.48 bitrate=N/A speed=13.6x    frame=25670 fps=327 q=-0.0 size=N/A time=00:17:50.65 bitrate=N/A speed=13.6x    frame=25848 fps=327 q=-0.0 size=N/A time=00:17:58.07 bitrate=N/A speed=13.6x    frame=26026 fps=327 q=-0.0 size=N/A time=00:18:05.50 bitrate=N/A speed=13.6x    frame=26196 fps=327 q=-0.0 size=N/A time=00:18:12.59 bitrate=N/A speed=13.6x    frame=26375 fps=327 q=-0.0 size=N/A time=00:18:20.05 bitrate=N/A speed=13.6x    frame=26555 fps=327 q=-0.0 size=N/A time=00:18:27.56 bitrate=N/A speed=13.7x    frame=26732 fps=327 q=-0.0 size=N/A time=00:18:34.94 bitrate=N/A speed=13.7x    frame=26902 fps=327 q=-0.0 size=N/A time=00:18:42.03 bitrate=N/A speed=13.7x    frame=27069 fps=327 q=-0.0 size=N/A time=00:18:49.00 bitrate=N/A speed=13.7x    frame=27249 fps=328 q=-0.0 size=N/A time=00:18:56.51 bitrate=N/A speed=13.7x    frame=27418 fps=328 q=-0.0 size=N/A time=00:19:03.55 bitrate=N/A speed=13.7x    frame=27587 fps=328 q=-0.0 size=N/A time=00:19:10.60 bitrate=N/A speed=13.7x    frame=27765 fps=328 q=-0.0 size=N/A time=00:19:18.03 bitrate=N/A speed=13.7x    frame=27939 fps=328 q=-0.0 size=N/A time=00:19:25.28 bitrate=N/A speed=13.7x    frame=28104 fps=328 q=-0.0 size=N/A time=00:19:32.17 bitrate=N/A speed=13.7x    frame=28280 fps=328 q=-0.0 size=N/A time=00:19:39.51 bitrate=N/A speed=13.7x    frame=28457 fps=328 q=-0.0 size=N/A time=00:19:46.89 bitrate=N/A speed=13.7x    frame=28629 fps=328 q=-0.0 size=N/A time=00:19:54.06 bitrate=N/A speed=13.7x    frame=28800 fps=328 q=-0.0 size=N/A time=00:20:01.20 bitrate=N/A speed=13.7x    frame=28964 fps=328 q=-0.0 size=N/A time=00:20:08.04 bitrate=N/A speed=13.7x    frame=29129 fps=328 q=-0.0 size=N/A time=00:20:14.92 bitrate=N/A speed=13.7x    frame=29293 fps=328 q=-0.0 size=N/A time=00:20:21.76 bitrate=N/A speed=13.7x    frame=29460 fps=328 q=-0.0 size=N/A time=00:20:28.72 bitrate=N/A speed=13.7x    frame=29620 fps=328 q=-0.0 size=N/A time=00:20:35.40 bitrate=N/A speed=13.7x    frame=29814 fps=328 q=-0.0 size=N/A time=00:20:43.49 bitrate=N/A speed=13.7x    frame=29980 fps=328 q=-0.0 size=N/A time=00:20:50.41 bitrate=N/A speed=13.7x    frame=30141 fps=328 q=-0.0 size=N/A time=00:20:57.13 bitrate=N/A speed=13.7x    frame=30310 fps=328 q=-0.0 size=N/A time=00:21:04.17 bitrate=N/A speed=13.7x    frame=30482 fps=328 q=-0.0 size=N/A time=00:21:11.35 bitrate=N/A speed=13.7x    frame=30648 fps=328 q=-0.0 size=N/A time=00:21:18.27 bitrate=N/A speed=13.7x    frame=30817 fps=328 q=-0.0 size=N/A time=00:21:25.32 bitrate=N/A speed=13.7x    frame=30994 fps=328 q=-0.0 size=N/A time=00:21:32.70 bitrate=N/A speed=13.7x    frame=31162 fps=328 q=-0.0 size=N/A time=00:21:39.71 bitrate=N/A speed=13.7x    frame=31332 fps=328 q=-0.0 size=N/A time=00:21:46.80 bitrate=N/A speed=13.7x    frame=31490 fps=328 q=-0.0 size=N/A time=00:21:53.39 bitrate=N/A speed=13.7x    frame=31671 fps=328 q=-0.0 size=N/A time=00:22:00.94 bitrate=N/A speed=13.7x    frame=31825 fps=328 q=-0.0 size=N/A time=00:22:07.36 bitrate=N/A speed=13.7x    frame=31986 fps=327 q=-0.0 size=N/A time=00:22:14.08 bitrate=N/A speed=13.7x    frame=32156 fps=327 q=-0.0 size=N/A time=00:22:21.17 bitrate=N/A speed=13.7x    frame=32331 fps=327 q=-0.0 size=N/A time=00:22:28.47 bitrate=N/A speed=13.7x    frame=32507 fps=328 q=-0.0 size=N/A time=00:22:35.81 bitrate=N/A speed=13.7x    frame=32662 fps=327 q=-0.0 size=N/A time=00:22:42.27 bitrate=N/A speed=13.7x    frame=32825 fps=327 q=-0.0 size=N/A time=00:22:49.07 bitrate=N/A speed=13.7x    frame=32982 fps=327 q=-0.0 size=N/A time=00:22:55.62 bitrate=N/A speed=13.7x    frame=33147 fps=327 q=-0.0 size=N/A time=00:23:02.50 bitrate=N/A speed=13.6x    frame=33314 fps=327 q=-0.0 size=N/A time=00:23:09.47 bitrate=N/A speed=13.6x    frame=33478 fps=327 q=-0.0 size=N/A time=00:23:16.31 bitrate=N/A speed=13.6x    frame=33619 fps=327 q=-0.0 size=N/A time=00:23:22.19 bitrate=N/A speed=13.6x    frame=33754 fps=327 q=-0.0 size=N/A time=00:23:27.82 bitrate=N/A speed=13.6x    frame=33882 fps=326 q=-0.0 size=N/A time=00:23:33.16 bitrate=N/A speed=13.6x    frame=34027 fps=326 q=-0.0 size=N/A time=00:23:39.20 bitrate=N/A speed=13.6x    frame=34188 fps=326 q=-0.0 size=N/A time=00:23:45.92 bitrate=N/A speed=13.6x    frame=34329 fps=326 q=-0.0 size=N/A time=00:23:51.80 bitrate=N/A speed=13.6x    frame=34458 fps=325 q=-0.0 size=N/A time=00:23:57.18 bitrate=N/A speed=13.6x    frame=34629 fps=325 q=-0.0 size=N/A time=00:24:04.31 bitrate=N/A speed=13.6x    [Parsed_ssim_16 @ 0000015105c3dc00] SSIM Y:0.993764 (22.050790) U:0.993991 (22.212294) V:0.993596 (21.935550) All:0.993774 (22.057755)
[out#0/null @ 0000015178ecdec0] video:14903KiB audio:271276KiB subtitle:0KiB other streams:0KiB global headers:0KiB muxing overhead: unknown
frame=34683 fps=325 q=-0.0 Lsize=N/A time=00:24:06.57 bitrate=N/A speed=13.6x    
